
<svg width="8px" height="8px" viewBox="0 0 8 8" version="1.1" xmlns="http://www.w3.org/2000/svg" xmlns:xlink="http://www.w3.org/1999/xlink">
    <g id="Symbols-&amp;-Documentation" stroke="none" stroke-width="1" fill="none" fill-rule="evenodd">
        <g id="Navigation" transform="translate(-903.000000, -82.000000)" fill="#0a7c07">
            <g id="dropdown" transform="translate(896.000000, 75.000000)">
                <path d="M15,11.6821429 L15,10.3178571 C15,10.0803571 14.8089286,9.88928571 14.5714286,9.88928571 L12.1107143,9.88928571 L12.1107143,7.42857143 C12.1107143,7.19107143 11.9196429,7 11.6821429,7 L10.3178571,7 C10.0803571,7 9.88928571,7.19107143 9.88928571,7.42857143 L9.88928571,9.88928571 L7.42857143,9.88928571 C7.19107143,9.88928571 7,10.0803571 7,10.3178571 L7,11.6821429 C7,11.9196429 7.19107143,12.1107143 7.42857143,12.1107143 L9.88928571,12.1107143 L9.88928571,14.5714286 C9.88928571,14.8089286 10.0803571,15 10.3178571,15 L11.6821429,15 C11.9196429,15 12.1107143,14.8089286 12.1107143,14.5714286 L12.1107143,12.1107143 L14.5714286,12.1107143 C14.8089286,12.1107143 15,11.9196429 15,11.6821429 Z" id="Shape"></path>
            </g>
        </g>
    </g>
</svg>
