<svg xmlns="http://www.w3.org/2000/svg" width="14" height="14" viewBox="0 0 14 14">
  <path fill="#0a7c07" d="M13.7816764,12.0814815 L11.0608187,9.36062378 C10.9380117,9.23781676 10.77154,9.16959064 10.5968811,9.16959064 L10.1520468,9.16959064 C10.9052632,8.20623782 11.3528265,6.99454191 11.3528265,5.67641326 C11.3528265,2.54074074 8.81208577,0 5.67641326,0 C2.54074074,0 0,2.54074074 0,5.67641326 C0,8.81208577 2.54074074,11.3528265 5.67641326,11.3528265 C6.99454191,11.3528265 8.20623782,10.9052632 9.16959064,10.1520468 L9.16959064,10.5968811 C9.16959064,10.77154 9.23781676,10.9380117 9.36062378,11.0608187 L12.0814815,13.7816764 C12.3380117,14.0382066 12.7528265,14.0382066 13.0066277,13.7816764 L13.7789474,13.0093567 C14.0354776,12.7528265 14.0354776,12.3380117 13.7816764,12.0814815 Z M5.67641326,9.16959064 C3.74697856,9.16959064 2.18323587,7.608577 2.18323587,5.67641326 C2.18323587,3.74697856 3.74424951,2.18323587 5.67641326,2.18323587 C7.60584795,2.18323587 9.16959064,3.74424951 9.16959064,5.67641326 C9.16959064,7.60584795 7.608577,9.16959064 5.67641326,9.16959064 Z"/>
</svg>
