<svg xmlns="http://www.w3.org/2000/svg" width="13" height="16" viewBox="0 0 13 16">
  <g fill="#0a7c07" fill-rule="evenodd" transform="translate(0 -1)">
    <path d="M0,16.1572 L12.074,16.1572 L12.074,6.2202 L0,6.2202 L0,16.1572 Z M1,15.1572 L11.075,15.1572 L11.075,7.2202 L1,7.2202 L1,15.1572 Z"/>
    <g transform="translate(2 .157)">
      <path d="M7.5156 5.8311L6.5156 5.8311 6.5156 4.1501C6.5156 2.8781 5.4806 1.8431 4.2076 1.8431L3.9946 1.8431C2.7226 1.8431 1.6876 2.8781 1.6876 4.1501L1.6876 5.8311.6876 5.8311.6876 4.1501C.6876 2.3261 2.1706.8431 3.9946.8431L4.2076.8431C6.0326.8431 7.5156 2.3261 7.5156 4.1501L7.5156 5.8311zM5.3477 12.0029C5.3477 12.7279 4.7607 13.3149 4.0367 13.3149 3.3127 13.3149 2.7257 12.7279 2.7257 12.0029 2.7257 11.2789 3.3127 10.6909 4.0367 10.6909 4.7607 10.6909 5.3477 11.2789 5.3477 12.0029M4.0371 8.8203L4.0371 11.0313"/>
      <path d="M4.0371,11.5317 C3.7611,11.5317 3.5371,11.3077 3.5371,11.0317 L3.5371,8.8207 C3.5371,8.5437 3.7611,8.3207 4.0371,8.3207 C4.3131,8.3207 4.5371,8.5437 4.5371,8.8207 L4.5371,11.0317 C4.5371,11.3077 4.3131,11.5317 4.0371,11.5317"/>
    </g>
  </g>
</svg>
