<svg xmlns="http://www.w3.org/2000/svg" width="11" height="13" viewBox="0 0 11 13">
  <g fill="none" fill-rule="evenodd" transform="translate(-5 -4)">
    <rect width="21" height="21"/>
    <path fill="#0a7c07" fill-rule="nonzero" d="M15.7053571,7.92857143 L5.29464286,7.92857143 C5.13258929,7.92857143 5,7.79598214 5,7.63392857 L5,6.75 C5,6.09933036 5.52790179,5.57142857 6.17857143,5.57142857 L7.35714286,5.57142857 L7.35714286,4.29464286 C7.35714286,4.13258929 7.48973214,4 7.65178571,4 L8.63392857,4 C8.79598214,4 8.92857143,4.13258929 8.92857143,4.29464286 L8.92857143,5.57142857 L12.0714286,5.57142857 L12.0714286,4.29464286 C12.0714286,4.13258929 12.2040179,4 12.3660714,4 L13.3482143,4 C13.5102679,4 13.6428571,4.13258929 13.6428571,4.29464286 L13.6428571,5.57142857 L14.8214286,5.57142857 C15.4720982,5.57142857 16,6.09933036 16,6.75 L16,7.63392857 C16,7.79598214 15.8674107,7.92857143 15.7053571,7.92857143 Z M5.29464286,8.71428571 L15.7053571,8.71428571 C15.8674107,8.71428571 16,8.846875 16,9.00892857 L16,15.3928571 C16,16.0435268 15.4720982,16.5714286 14.8214286,16.5714286 L6.17857143,16.5714286 C5.52790179,16.5714286 5,16.0435268 5,15.3928571 L5,9.00892857 C5,8.846875 5.13258929,8.71428571 5.29464286,8.71428571 Z M8.14285714,13.7232143 C8.14285714,13.5611607 8.01026786,13.4285714 7.84821429,13.4285714 L6.86607143,13.4285714 C6.70401786,13.4285714 6.57142857,13.5611607 6.57142857,13.7232143 L6.57142857,14.7053571 C6.57142857,14.8674107 6.70401786,15 6.86607143,15 L7.84821429,15 C8.01026786,15 8.14285714,14.8674107 8.14285714,14.7053571 L8.14285714,13.7232143 Z M8.14285714,10.5803571 C8.14285714,10.4183036 8.01026786,10.2857143 7.84821429,10.2857143 L6.86607143,10.2857143 C6.70401786,10.2857143 6.57142857,10.4183036 6.57142857,10.5803571 L6.57142857,11.5625 C6.57142857,11.7245536 6.70401786,11.8571429 6.86607143,11.8571429 L7.84821429,11.8571429 C8.01026786,11.8571429 8.14285714,11.7245536 8.14285714,11.5625 L8.14285714,10.5803571 Z M11.2857143,13.7232143 C11.2857143,13.5611607 11.153125,13.4285714 10.9910714,13.4285714 L10.0089286,13.4285714 C9.846875,13.4285714 9.71428571,13.5611607 9.71428571,13.7232143 L9.71428571,14.7053571 C9.71428571,14.8674107 9.846875,15 10.0089286,15 L10.9910714,15 C11.153125,15 11.2857143,14.8674107 11.2857143,14.7053571 L11.2857143,13.7232143 Z M11.2857143,10.5803571 C11.2857143,10.4183036 11.153125,10.2857143 10.9910714,10.2857143 L10.0089286,10.2857143 C9.846875,10.2857143 9.71428571,10.4183036 9.71428571,10.5803571 L9.71428571,11.5625 C9.71428571,11.7245536 9.846875,11.8571429 10.0089286,11.8571429 L10.9910714,11.8571429 C11.153125,11.8571429 11.2857143,11.7245536 11.2857143,11.5625 L11.2857143,10.5803571 Z M14.4285714,13.7232143 C14.4285714,13.5611607 14.2959821,13.4285714 14.1339286,13.4285714 L13.1517857,13.4285714 C12.9897321,13.4285714 12.8571429,13.5611607 12.8571429,13.7232143 L12.8571429,14.7053571 C12.8571429,14.8674107 12.9897321,15 13.1517857,15 L14.1339286,15 C14.2959821,15 14.4285714,14.8674107 14.4285714,14.7053571 L14.4285714,13.7232143 Z M14.4285714,10.5803571 C14.4285714,10.4183036 14.2959821,10.2857143 14.1339286,10.2857143 L13.1517857,10.2857143 C12.9897321,10.2857143 12.8571429,10.4183036 12.8571429,10.5803571 L12.8571429,11.5625 C12.8571429,11.7245536 12.9897321,11.8571429 13.1517857,11.8571429 L14.1339286,11.8571429 C14.2959821,11.8571429 14.4285714,11.7245536 14.4285714,11.5625 L14.4285714,10.5803571 Z"/>
  </g>
</svg>
